<?xml version="1.0" encoding="utf-8"?>
<!-- Generator: Adobe Illustrator 15.0.0, SVG Export Plug-In . SVG Version: 6.00 Build 0)  -->
<!DOCTYPE svg PUBLIC "-//W3C//DTD SVG 1.1//EN" "http://www.w3.org/Graphics/SVG/1.1/DTD/svg11.dtd">
<svg version="1.1" id="Layer_1" xmlns="http://www.w3.org/2000/svg" xmlns:xlink="http://www.w3.org/1999/xlink" x="0px" y="0px"
	 width="1190.55px" height="841.89px" viewBox="0 0 1190.55 841.89" enable-background="new 0 0 1190.55 841.89"
	 xml:space="preserve">
<g>
	<g>
		<path d="M666.07,447.886c-3.902-3.906-10.234-3.906-14.141,0L605,494.812V323.89c0-5.523-4.477-10-10-10c-5.523,0-10,4.477-10,10
			v170.922l-46.93-46.926c-3.906-3.906-10.234-3.906-14.14,0c-3.907,3.906-3.907,10.238,0,14.141l64,64
			c1.953,1.953,4.511,2.93,7.07,2.93c2.559,0,5.117-0.977,7.07-2.93l64-64C669.977,458.121,669.977,451.789,666.07,447.886
			L666.07,447.886z M666.07,447.886"/>
	</g>
</g>
<g>
	<g>
		<path fill="#FFFFFF" d="M411.07,447.886c-3.902-3.906-10.234-3.906-14.141,0L350,494.812V323.89c0-5.523-4.477-10-10-10
			c-5.523,0-10,4.477-10,10v170.922l-46.93-46.926c-3.906-3.906-10.234-3.906-14.14,0c-3.907,3.906-3.907,10.238,0,14.141l64,64
			c1.953,1.953,4.511,2.93,7.07,2.93c2.559,0,5.117-0.977,7.07-2.93l64-64C414.977,458.121,414.977,451.789,411.07,447.886
			L411.07,447.886z M411.07,447.886"/>
	</g>
</g>
</svg>
