<?xml version="1.0" encoding="utf-8"?>
<!-- Generator: Adobe Illustrator 15.0.0, SVG Export Plug-In . SVG Version: 6.00 Build 0)  -->
<!DOCTYPE svg PUBLIC "-//W3C//DTD SVG 1.1//EN" "http://www.w3.org/Graphics/SVG/1.1/DTD/svg11.dtd">
<svg version="1.1" id="Layer_1" xmlns="http://www.w3.org/2000/svg" xmlns:xlink="http://www.w3.org/1999/xlink" x="0px" y="0px"
	 width="1190.55px" height="841.89px" viewBox="0 0 1190.55 841.89" enable-background="new 0 0 1190.55 841.89"
	 xml:space="preserve">
<g>
	<g>
		<path d="M616.137,411.882l-39.856-26.016c-2.777-1.812-6.492-1.031-8.304,1.747c-1.813,2.773-1.032,6.492,1.746,8.304
			l38.062,24.844l-38.062,24.844c-2.778,1.809-3.559,5.527-1.746,8.301c1.152,1.766,3.07,2.723,5.031,2.723
			c1.121,0,2.262-0.316,3.273-0.977l39.856-26.016c3.555-2.094,5.59-5.316,5.59-8.879
			C621.727,417.198,619.691,413.972,616.137,411.882L616.137,411.882z M616.137,411.882"/>
	</g>
</g>
<g>
	<g>
		<path d="M449.59,411.882c-3.555,2.09-5.59,5.316-5.59,8.875c0,3.562,2.035,6.785,5.59,8.879l39.856,26.016
			c1.011,0.66,2.152,0.977,3.273,0.977c1.961,0,3.879-0.957,5.031-2.723c1.813-2.773,1.032-6.492-1.746-8.301l-38.062-24.844
			l38.062-24.844c2.778-1.812,3.559-5.531,1.746-8.304c-1.812-2.778-5.527-3.559-8.304-1.747L449.59,411.882L449.59,411.882z
			 M449.59,411.882"/>
	</g>
</g>
</svg>
